<svg width="24" height="30" viewBox="0 0 24 30" fill="none" xmlns="http://www.w3.org/2000/svg">
<path d="M20.8681 19.703C19.4761 18.645 17.8061 17.876 15.9851 17.415C18.2941 15.79 19.8511 12.81 19.8511 9.39904C19.8511 8.95104 19.8141 8.50204 19.7601 8.05404L20.9761 7.52404V10.749C20.9761 10.9877 21.0709 11.2167 21.2397 11.3854C21.4085 11.5542 21.6374 11.649 21.8761 11.649C22.1148 11.649 22.3437 11.5542 22.5125 11.3854C22.6813 11.2167 22.7761 10.9877 22.7761 10.749V6.56104C22.9891 6.30604 23.1241 5.98904 23.1241 5.64304C23.1241 5.06904 22.7841 4.54904 22.2581 4.32004L13.0941 0.328037C12.749 0.178166 12.3768 0.10083 12.0006 0.10083C11.6244 0.10083 11.2522 0.178166 10.9071 0.328037L1.74309 4.32004C1.48512 4.43188 1.26548 4.61671 1.11119 4.85177C0.956903 5.08683 0.874701 5.36187 0.874701 5.64304C0.874701 5.92421 0.956903 6.19925 1.11119 6.4343C1.26548 6.66936 1.48512 6.85419 1.74309 6.96604L4.23709 8.05304C4.18409 8.49504 4.15009 8.93904 4.15009 9.40004C4.15009 12.809 5.70509 15.789 8.01209 17.414C6.18909 17.874 4.51809 18.644 3.12909 19.703C1.66309 20.818 0.788086 22.635 0.788086 24.562V27.169C0.788879 27.8927 1.07662 28.5864 1.58821 29.0982C2.09979 29.61 2.79346 29.898 3.51709 29.899H20.4821C21.2051 29.8988 21.8985 29.6117 22.4101 29.1009C22.9217 28.59 23.2098 27.897 23.2111 27.174V24.564C23.2121 22.638 22.3361 20.821 20.8681 19.703ZM5.95009 9.40004C5.95009 9.20004 5.98109 9.01204 5.99309 8.81804L10.9071 10.959C11.2521 11.1091 11.6243 11.1866 12.0006 11.1866C12.3768 11.1866 12.7491 11.1091 13.0941 10.959L18.0251 8.81104C18.0371 9.00704 18.0501 9.20204 18.0501 9.40004C18.0501 13.546 15.3361 16.92 12.0001 16.92C8.66409 16.92 5.95009 13.546 5.95009 9.40004ZM9.93009 18.866C10.6142 18.7696 11.3042 18.7208 11.9951 18.72C12.6951 18.72 13.3831 18.772 14.0531 18.865L11.9941 22.111L9.93009 18.866Z" fill="#626F86"/>
</svg>
