<?xml version="1.0" encoding="UTF-8"?>
<svg width="512" height="512" viewBox="0 0 512 512" xmlns="http://www.w3.org/2000/svg">
  <!-- Nền gradient xanh lam đẹp -->
  <defs>
    <linearGradient id="grad" x1="0%" y1="0%" x2="100%" y2="100%">
      <stop offset="0%" style="stop-color:#2563eb" />   <!-- blue-600 -->
      <stop offset="100%" style="stop-color:#06b6d4" /> <!-- cyan-500 -->
    </linearGradient>
  </defs>

  <!-- Hình vuông bo góc làm nền logo -->
  <rect width="512" height="512" rx="128" fill="url(#grad)"/>

  <!-- Icon sách trắng hiện đại (được tinh chỉnh lại cho đẹp hơn) -->
  <path d="M312 96H200C168.6 96 142.6 121.1 141.4 152.5C140.8 168.6 140 185.1 140 202C140 309.1 140 416.2 140 456C140 476.7 164.3 492.7 184 492.7C220.4 492.7 256.8 492.7 293.2 492.7C328.5 492.7 356.7 464.5 356.7 429.2V161.8C356.7 135.5 335.5 114.3 309.2 114.3H312V96Z"
        fill="white"/>

  <path d="M372 96H360V114.3C333.7 114.3 312.5 135.5 312.5 161.8V429.2C312.5 464.5 340.7 492.7 376 492.7C412.4 492.7 448.8 492.7 485.2 492.7C504.9 492.7 529.2 476.7 529.2 456V202C529.2 185.1 528.4 168.6 527.8 152.5C526.6 121.1 500.6 96 469.2 96H372Z"
        fill="white" opacity="0.85"/>

  <!-- Đường gấp giữa hai cuốn sách (chi tiết nhỏ làm nổi bật) -->
  <path d="M140 202H372V429.2C372 437.8 366.6 445.3 359.2 449.2C351.8 445.3 344.4 441.4 337 441.4C329.6 441.4 322.2 445.3 314.8 449.2C307.4 445.3 300 441.4 292.6 441.4C285.2 441.4 277.8 445.3 270.4 449.2C263 445.3 255.6 441.4 248.2 441.4C240.8 441.4 233.4 445.3 226 449.2C218.6 445.3 211.2 441.4 203.8 441.4C196.4 441.4 189 445.3 181.6 449.2C174.2 445.3 166.8 441.4 159.4 441.4C152 441.4 144.6 445.3 137.2 449.2C137.2 445.3 137.2 437.8 137.2 429.2V202H140Z"
        fill="white" opacity="0.3"/>

  <!-- Chữ "B" nhỏ ở góc dưới bên phải để tạo dấu ấn thương hiệu (tùy chọn, có thể bỏ) -->
  <text x="378" y="445" font-family="Arial, sans-serif" font-size="140" font-weight="900" fill="white" opacity="0.4">B</text>
</svg>
